<svg xmlns="http://www.w3.org/2000/svg" width="40" height="40" stroke="#000" stroke-linecap="round" stroke-linejoin="round" fill="#fff" fill-rule="evenodd"><path d="M3 20c0-9.418 7.582-17 17-17s17 7.582 17 17-7.582 17-17 17S3 29.418 3 20z" fill="#f66" stroke="none" fill-rule="nonzero"/><path d="M3 20c0-9.418 7.582-17 17-17s17 7.582 17 17-7.582 17-17 17S3 29.418 3 20z" fill="none"/><path d="M7.3135 21.407v-.8203q0-1.7295.63-2.6147.63-.8853 1.84-.8853 1.128 0 1.7158.964l.0615-.8272h1.0938v7.465q0 1.374-.704 2.1088-.704.735-1.962.735-.547 0-1.227-.27-.6802-.27-1.022-.6665l.4922-.834q.752.7383 1.66.7383 1.5108 0 1.5518-1.6475v-.9638q-.588.868-1.668.868-1.1484 0-1.8-.8647-.6426-.8648-.67-2.485zm1.2-.8682v.7383q0 1.2442.3657 1.8286.3657.5845 1.1997.5845.9023 0 1.3535-.9228V19.069q-.4717-.9092-1.3398-.9092-.834 0-1.2032.5845-.37.5845-.376 1.7944zm5.6838.8068v-.7588q0-1.7.6392-2.6045.64-.8955 1.8354-.8955 1.0596 0 1.6543.8613V14.12h1.2v10.5h-1.1075l-.0615-.793q-.5947.9297-1.702.9297-1.1485 0-1.8013-.892-.6528-.892-.6665-2.52zm1.2-.8067v.7383q0 1.2442.37 1.8286.37.5845 1.203.5845.9024 0 1.3467-.9092v-3.7324q-.4648-.8887-1.3398-.8887-.834 0-1.2032.5845-.37.5845-.376 1.7944zm11.3577.007v.7314q0 1.7295-.622 2.6045-.622.875-1.8047.875-1.1758 0-1.7637-1.0117l-.0615.875h-1.1006v-10.5h1.203v3.917q.5948-.9502 1.7-.9502 1.2168 0 1.8252.8613.6084.8614.6152 2.5977zm-1.203.786v-.745q0-1.3125-.3657-1.8696Q24.8204 18.16 24 18.16q-.9366 0-1.3946 1.0118v3.5205q.4512.998 1.4082.998.8203 0 1.1758-.5742.3555-.5742.3623-1.7842zm5.9197-4.9558v2.9053h2.25v1.1963h-2.25v3.1445H30.255v-3.1445h-2.2695v-1.1963h2.2695V16.376h1.2168z" stroke="none" fill="#000"/></svg>